# xmcd
#
# Track frame offsets: 
#        150
#        11857
#        23560
#        33512
#        45537
#        58112
#        69592
#        81112
#        91525
#        103312
#        114362
#        123137
#        133862
#        145902
#        167875
#        179362
#        189337
#        200237
#        209225
#        221565
#
# Disc length: 3105 seconds
#
# Revision: 3
# Processed by: cddbd v1.5.2PL0 Copyright (c) Steve Scherf et al.
# Submitted via: ExactAudioCopy v0.99pb3
#
DISCID=280c1f14
DTITLE=Various Artist - Big In Wigan
DYEAR=1900
DGENRE=Northern Soul
TTITLE0=Gypsies - It's A Woman's Wold (You'd Better Believe It)
TTITLE1=Leon Haywood - Baby Reconsider
TTITLE2=Percy Wiggins - That's Loving You
TTITLE3=JJ Barnes - Sweet Sherry
TTITLE4=Prentenders - I Wanna Be (Your Everything)
TTITLE5=William Bell - Happy
TTITLE6=Millie Jackson - My Man, A Sweet Man
TTITLE7=Lovettes - Little Miss Soul
TTITLE8=Bobby Freeman - I'll Never Fall In Love Again
TTITLE9=Mickey Lee Lane - Hey Sah-Lo-Ney
TTITLE10=Bobby Patterson - Till You Give In
TTITLE11=Jean Wells - With My Love And What You've Got
TTITLE12=Loleatta Holloway - Mother Of Shame
TTITLE13=Skip Mahoaney and The Casuals - Running Away From Love
TTITLE14=Flower Shoppe - You've Come A Long Way Baby
TTITLE15=John Edwards - Ain't That Good Enough
TTITLE16=Mary Love - You Turned My Bitter Into Sweet
TTITLE17=Lorraine And The Delights - Baby I Need You
TTITLE18=Mel  Williams - Can It Be Me
TTITLE19=Showmen - Our Love Will Grow
EXTD=tim1701
EXTT0=
EXTT1=
EXTT2=
EXTT3=
EXTT4=
EXTT5=
EXTT6=
EXTT7=
EXTT8=
EXTT9=
EXTT10=
EXTT11=
EXTT12=
EXTT13=
EXTT14=
EXTT15=
EXTT16=
EXTT17=
EXTT18=
EXTT19=
PLAYORDER=
